<?xml version="1.0" encoding="UTF-8" standalone="no"?>
<!-- Generator: Adobe Illustrator 25.4.1, SVG Export Plug-In . SVG Version: 6.00 Build 0)  -->

<svg
   version="1.1"
   id="Layer_1"
   x="0px"
   y="0px"
   width="200mm"
   height="60mm"
   viewBox="0 0 755.90553 226.77165"
   xml:space="preserve"
   sodipodi:docname="mcmicro-logo.svg"
   inkscape:version="1.2 (dc2aeda, 2022-05-15)"
   inkscape:export-filename="mcmicro.hackathon.png"
   inkscape:export-xdpi="300"
   inkscape:export-ydpi="300"
   xmlns:inkscape="http://www.inkscape.org/namespaces/inkscape"
   xmlns:sodipodi="http://sodipodi.sourceforge.net/DTD/sodipodi-0.dtd"
   xmlns="http://www.w3.org/2000/svg"
   xmlns:svg="http://www.w3.org/2000/svg"><defs
   id="defs417"><rect
     x="153.50648"
     y="513.19324"
     width="796.12671"
     height="147.4866"
     id="rect656" /></defs><sodipodi:namedview
   id="namedview415"
   pagecolor="#ffffff"
   bordercolor="#cccccc"
   borderopacity="1"
   inkscape:showpageshadow="0"
   inkscape:pageopacity="1"
   inkscape:pagecheckerboard="0"
   inkscape:deskcolor="#d1d1d1"
   showgrid="false"
   inkscape:zoom="0.66446707"
   inkscape:cx="571.1344"
   inkscape:cy="139.20931"
   inkscape:window-width="1512"
   inkscape:window-height="851"
   inkscape:window-x="1"
   inkscape:window-y="38"
   inkscape:window-maximized="0"
   inkscape:current-layer="Layer_1"
   inkscape:document-units="mm" />
<style
   type="text/css"
   id="style394">
	.st0{fill:#00A1E1;}
	.st1{fill:#0066BA;}
	.st2{fill:#9EA9AE;}
</style>








<g
   id="g768"
   transform="translate(-159.52634,-276.91364)"><path
     class="st0"
     d="m 276.8462,402.45337 h -25.4 v -64.7 l -30.2,49.6 -30.2,-49.6 v 64.7 h -25.5 v -111.3 h 25.4 l 30.2,49.5 30.2,-49.5 h 25.4 v 111.3 z"
     id="path396" /><path
     class="st1"
     d="m 291.1462,346.85337 c 0,-32.8 24.3,-57.9 57.9,-57.9 20.2,0 38,10 47.7,25.8 l -22,12.7 c -4.9,-8.6 -14.5,-13.7 -25.8,-13.7 -19.7,0 -32.4,13.2 -32.4,33.1 0,19.9 12.7,33.1 32.4,33.1 11.3,0 21,-5.1 25.8,-13.7 l 22,12.7 c -9.5,15.7 -27.4,25.8 -47.7,25.8 -33.6,0 -57.9,-25.2 -57.9,-57.9 z"
     id="path398" /><path
     class="st2"
     d="m 520.0462,402.45337 h -25.4 v -64.7 l -30.2,49.6 -30.2,-49.6 v 64.7 h -25.4 v -111.3 h 25.4 l 30.2,49.5 30.2,-49.5 h 25.4 z"
     id="path400" /><path
     class="st2"
     d="m 564.5462,291.15337 v 111.3 h -25.5 v -111.3 z"
     id="path402" /><path
     class="st2"
     d="m 578.8462,346.85337 c 0,-32.8 24.3,-57.9 57.9,-57.9 20.2,0 38,10 47.7,25.8 l -22,12.7 c -4.9,-8.6 -14.5,-13.7 -25.8,-13.7 -19.7,0 -32.4,13.2 -32.4,33.1 0,19.9 12.7,33.1 32.4,33.1 11.3,0 21,-5.1 25.8,-13.7 l 22,12.7 c -9.5,15.7 -27.4,25.8 -47.7,25.8 -33.6,0 -57.9,-25.2 -57.9,-57.9 z"
     id="path404" /><path
     class="st2"
     d="m 733.8462,365.85337 h -12.1 v 36.6 h -25.4 v -111.3 h 44.5 c 21.2,0 38.2,17 38.2,38.2 0,13.7 -8.3,26.1 -20.5,32.3 l 23.7,40.9 h -27.4 z m -12,-22.2 h 19.1 c 7,0 12.7,-6.2 12.7,-14.3 0,-8.1 -5.7,-14.3 -12.7,-14.3 h -19.1 z"
     id="path406" /><circle
     class="st2"
     cx="846.74622"
     cy="346.85336"
     r="57.900002"
     id="circle408" /><circle
     class="st0"
     cx="846.74622"
     cy="346.85336"
     r="33.299999"
     id="circle410" /><circle
     class="st1"
     cx="846.74622"
     cy="346.85336"
     r="12"
     id="circle412" /></g>
<text
   xml:space="preserve"
   id="text654"
   style="font-style:normal;font-weight:normal;font-size:66.6667px;line-height:1.25;font-family:sans-serif;white-space:pre;shape-inside:url(#rect656);display:inline;fill:#000000;fill-opacity:1;stroke:none"
   transform="translate(-108.30709,-367.21156)"><tspan
     x="153.50586"
     y="586.17978"
     id="tspan856"><tspan
       style="font-size:80px;font-family:'Noto Sans Buhid';-inkscape-font-specification:'Noto Sans Buhid, Normal';fill:#00aad4"
       id="tspan854">Hackathon 2022</tspan></tspan></text></svg>
